<svg width="235" height="112" viewBox="0 0 235 112" fill="none" xmlns="http://www.w3.org/2000/svg">
<path d="M45.084 39.105L42.5394 41.0925L40.4703 38.6137L19.6304 13.6471C18.3966 12.1691 16.3834 11.5783 14.5566 12.152L14.545 12.1556C12.7103 12.7245 11.3979 14.3511 11.2233 16.2804L3.9948 96.1522C3.75717 98.7779 5.6825 101.084 8.30842 101.32L88.1861 108.483C90.1088 108.656 91.9459 107.655 92.8417 105.945L92.8437 105.941C93.7347 104.247 93.5133 102.16 92.2795 100.682L71.5953 75.902L69.3974 73.2689L72.0908 71.1454C111.418 40.1387 149.6 26.9474 182.73 34.2545C195.252 37.0113 206.447 41.1844 214.516 44.6775C218.556 46.4264 221.827 48.0112 224.106 49.1741C225.245 49.7554 226.14 50.2333 226.764 50.5758C227.074 50.7464 227.324 50.8873 227.507 50.9933C227.545 51.015 227.582 51.0366 227.618 51.0579L230.83 52.4079C230.794 52.0785 230.508 51.2766 229.187 49.6938C225.171 44.8831 204.841 22.034 172.717 10.502C140.864 -0.932338 96.9654 -1.41653 45.084 39.105Z" fill="#CAE3F2" stroke="#0994D6" stroke-width="6.67086"/>
</svg>
